<?xml version="1.0" encoding="UTF-8"?>
<svg width="15px" height="16px" viewBox="0 0 15 16" version="1.1" xmlns="http://www.w3.org/2000/svg" xmlns:xlink="http://www.w3.org/1999/xlink">
    <!-- Generator: sketchtool 64 (101010) - https://sketch.com -->
    <title>19E8868B-D77B-436A-AFDC-4F1F79C57820</title>
    <desc>Created with sketchtool.</desc>
    <g id="Page-1" stroke="none" stroke-width="1" fill="none" fill-rule="evenodd">
        <g id="מצב-כללי" transform="translate(-1194.000000, -349.000000)" fill="#000000" fill-rule="nonzero">
            <g id="Group-10" transform="translate(115.000000, 105.000000)">
                <g id="Group-9" transform="translate(404.778302, 190.000000)">
                    <g id="Group-8" transform="translate(428.000000, 49.000000)">
                        <g id="noun_Graph_2480153" transform="translate(254.000000, 13.000000) scale(-1, 1) translate(-254.000000, -13.000000) translate(247.000000, 5.500000)">
                            <path d="M3.87507776,9.74604662 L3.87507776,14.1595082 C3.87507776,14.4641941 3.64198601,14.7111908 3.35445276,14.7111908 L1.27195276,14.7111908 C0.984419514,14.7111908 0.751327762,14.4641941 0.751327762,14.1595082 L0.751327762,9.74604662 C0.751327762,9.44136068 0.984419514,9.19436393 1.27195276,9.19436393 L3.35445276,9.19436393 C3.64198601,9.19436393 3.87507776,9.44136068 3.87507776,9.74604662 Z M7.8665361,7.35542162 L5.7840361,7.35542162 C5.49650285,7.35542162 5.2634111,7.60241837 5.2634111,7.90710431 L5.2634111,14.1595082 C5.2634111,14.4641941 5.49650285,14.7111908 5.7840361,14.7111908 L7.8665361,14.7111908 C8.15406934,14.7111908 8.3871611,14.4641941 8.3871611,14.1595082 L8.3871611,7.90710431 C8.3871611,7.60241837 8.15406934,7.35542162 7.8665361,7.35542162 Z M13.9404944,3.99751296 L11.5785923,0.490649984 C11.5199712,0.412994607 11.4312147,0.367788462 11.3373694,0.367788462 C11.2435242,0.367788462 11.1547677,0.412994607 11.0961465,0.490649984 L8.73250901,3.99751296 C8.66731299,4.09334212 8.6583031,4.21980653 8.70918296,4.32492154 C8.76006282,4.43003655 8.86224716,4.49606546 8.97373193,4.49586633 L9.77549443,4.49586633 L9.77549443,14.1595082 C9.77549443,14.4641941 10.0085862,14.7111908 10.2961194,14.7111908 L12.3786194,14.7111908 C12.6661527,14.7111908 12.8992444,14.4641941 12.8992444,14.1595082 L12.8992444,4.49586633 L13.7027423,4.49586633 C13.8142271,4.49606546 13.9164115,4.43003655 13.9672913,4.32492154 C14.0181712,4.21980653 14.0091613,4.09334212 13.9439653,3.99751296 L13.9404944,3.99751296 Z" id="Shape"></path>
                        </g>
                    </g>
                </g>
            </g>
        </g>
    </g>
</svg>